Coordinates
version=1
nRows=9
nColumns=36
inDegrees=yes

Units are S.I. units (second, meters, Newtons, ...)
If the header above contains a line with 'inDegrees', this indicates whether rotational values are in degrees (yes) or radians (no).

endheader
time	pelvis_tilt	pelvis_list	pelvis_rotation	pelvis_tx	pelvis_ty	pelvis_tz	hip_flexion_r	hip_adduction_r	hip_rotation_r	knee_angle_r	knee_angle_r_beta	ankle_angle_r	subtalar_angle_r	mtp_angle_r	hip_flexion_l	hip_adduction_l	hip_rotation_l	knee_angle_l	knee_angle_l_beta	ankle_angle_l	subtalar_angle_l	mtp_angle_l	lumbar_extension	lumbar_bending	lumbar_rotation	arm_flex_r	arm_add_r	arm_rot_r	elbow_flex_r	pro_sup_r	arm_flex_l	arm_add_l	arm_rot_l	elbow_flex_l	pro_sup_l
      4.75000000	      0.95881897	      0.26901359	      2.12443490	      0.31696301	      1.14221416	     -0.09662060	     -6.91185077	     -3.87872660	    -12.12437372	      0.61325580	      0.01070333	     -1.92428399	    -18.65191821	     -7.49999987	     -2.54012585	     -1.68107538	      0.66747223	      1.18731487	      0.02072255	     -1.85183834	    -12.67704155	     -7.49999987	     -5.49685664	      0.01032756	      5.55994094	     -9.15159634	    -18.85852046	     27.01813251	    107.96993731	     87.63731273	      9.42344685	    -17.71402083	     44.23364393	     97.49853122	     74.80400285
      4.76666670	      0.88181781	      0.27710135	      2.06597936	      0.31669482	      1.13930252	     -0.09672393	     -6.81371980	     -3.92207291	    -12.27136885	      0.60408683	      0.01054330	     -1.81907031	    -18.37521735	     -7.49999987	     -2.48932770	     -1.65864031	      0.67692840	      1.14052745	      0.01990596	     -1.82459907	    -12.78755473	     -7.49999987	     -5.41408651	     -0.01636826	      5.76653600	     -9.26042700	    -19.16844635	     27.15699472	    108.06120912	     87.62076891	      9.40889301	    -17.88594534	     44.44741116	     97.56425983	     74.63498924
      4.78333330	      0.82051741	      0.25926583	      1.94979092	      0.31693984	      1.13901519	     -0.09632252	     -6.72998261	     -3.92800322	    -12.12897309	      0.58964607	      0.01029127	     -1.91093181	    -18.54016520	     -7.49999987	     -2.46232495	     -1.66530332	      0.53821066	      1.09420270	      0.01909744	     -1.77194322	    -12.72877648	     -7.49999987	     -5.31307255	      0.00091272	      5.79976581	     -9.13401270	    -19.48684189	     27.50676854	    108.02940669	     88.16648074	      9.13164172	    -18.07813939	     44.52448542	     97.77631305	     75.28032203
      4.80000000	      0.75196776	      0.23950891	      1.92742113	      0.31674494	      1.13627409	     -0.09640817	     -6.65053620	     -3.92000420	    -12.23554635	      0.58841069	      0.01026970	     -1.77564017	    -18.39466860	     -7.49999987	     -2.39146376	     -1.67400731	      0.66537640	      1.08511110	      0.01893876	     -1.77521868	    -12.93516276	     -7.49999987	     -5.18003935	     -0.01116825	      5.96520628	     -9.29548552	    -19.74230012	     27.57180145	    108.21542468	     88.04036496	      9.33138242	    -18.16684104	     45.08607501	     97.84198465	     75.24440884
      4.81666670	      0.68807735	      0.22604140	      1.87547263	      0.31686950	      1.13944577	     -0.09650962	     -6.56237164	     -3.90606534	    -12.07615913	      0.58082337	      0.01013728	     -1.84650554	    -18.50823540	     -7.49999987	     -2.33892701	     -1.69106377	      0.57977019	      1.06510992	      0.01858967	     -1.71358173	    -12.84000233	     -7.49999987	     -5.08116738	      0.00965412	      6.07461098	     -9.32837120	    -19.97221287	     27.64290055	    108.26994549	     88.28095653	      9.42588274	    -18.21093476	     45.42885392	     97.77475549	     75.66573271
      4.83333330	      0.66296204	      0.19912002	      1.87479967	      0.31276183	      1.13977855	     -0.09191238	     -6.47857997	     -3.79216573	    -12.04457598	      0.54958363	      0.00959204	     -1.82089522	    -18.49752290	     -7.49999987	     -2.26221420	     -1.75173251	      0.62405854	      1.04389099	      0.01821933	     -1.70756906	    -12.82821850	     -7.49999987	     -5.13165492	     -0.06800997	      6.12501747	     -9.27857238	    -20.00463964	     27.63486644	    108.26747512	     88.27974143	      9.43977564	    -18.30180633	     45.42305643	     97.75920769	     75.66948292
      4.85000000	      0.61752536	      0.16812744	      1.88877572	      0.31296523	      1.13964221	     -0.09201683	     -6.37834253	     -3.68081054	    -12.03784606	      0.54723040	      0.00955097	     -1.61127009	    -18.18774147	     -7.49999987	     -2.10838433	     -1.81104406	      0.56883714	      1.09028511	      0.01902906	     -1.70251931	    -12.56411252	     -7.49999987	     -5.07221759	     -0.08917218	      6.06002541	     -8.89694445	    -20.15760252	     28.12787164	    108.18016660	     86.68111606	      9.72110583	    -18.54770523	     45.87835875	     97.65388102	     75.00430384
      4.86666670	      0.61955827	      0.15429551	      1.86063825	      0.31283891	      1.13981236	     -0.09199207	     -6.32078513	     -3.60221132	    -12.06411988	      0.54819519	      0.00956781	     -1.58465757	    -18.14129914	     -7.49999987	     -2.05481855	     -1.87115277	      0.42710729	      1.09316567	      0.01907934	     -1.62412449	    -12.19737411	     -7.49999987	     -5.11131659	     -0.14325349	      6.02336327	     -8.64593270	    -20.19824599	     28.48226723	    108.03370319	     84.64506894	     10.01464004	    -18.53608976	     46.13976688	     97.45090449	     74.03767504
      4.88333330	      0.47687890	      0.09701981	      1.81870853	      0.31301682	      1.13961115	     -0.09208961	     -6.09449775	     -3.49399973	    -11.86180033	      0.55558044	      0.00969671	     -1.78637001	    -18.49618520	     -7.49999987	     -1.84901527	     -1.95806324	      0.58430321	      1.08928137	      0.01901155	     -1.89041510	    -12.58864358	     -7.49999987	     -5.00472340	     -0.12586135	      6.44968887	     -9.12896686	    -20.16913555	     27.78704136	    108.17376851	     87.88091644	     10.55016188	    -18.51671569	     46.77559558	     97.04137966	     76.40319870
